<svg xmlns="http://www.w3.org/2000/svg" x="0px" y="0px"
width="50" height="50"
viewBox="0 0 172 172"
style=" fill:#000000;"><g fill="none" fill-rule="nonzero" stroke="none" stroke-width="1" stroke-linecap="butt" stroke-linejoin="miter" stroke-miterlimit="10" stroke-dasharray="" stroke-dashoffset="0" font-family="none" font-weight="none" font-size="none" text-anchor="none" style="mix-blend-mode: normal"><path d="M0,172v-172h172v172z" fill="none"></path><g><path d="M22.36,46.44c-1.89986,0 -3.44,1.54014 -3.44,3.44c0,1.89986 1.54014,3.44 3.44,3.44c1.89986,0 3.44,-1.54014 3.44,-3.44c0,-1.89986 -1.54014,-3.44 -3.44,-3.44z" fill="#e74c3c"></path><path d="M132.44,20.64c-0.94993,0 -1.72,0.77007 -1.72,1.72c0,0.94993 0.77007,1.72 1.72,1.72c0.94993,0 1.72,-0.77007 1.72,-1.72c0,-0.94993 -0.77007,-1.72 -1.72,-1.72z" fill="#e74c3c"></path><path d="M86,22.36c-35.1474,0 -63.64,28.4926 -63.64,63.64c0,35.1474 28.4926,63.64 63.64,63.64c35.1474,0 63.64,-28.4926 63.64,-63.64c0,-35.1474 -28.4926,-63.64 -63.64,-63.64z" fill="#e74c3c"></path><path d="M142.76,18.92c-3.79972,0 -6.88,3.08028 -6.88,6.88c0,3.79972 3.08028,6.88 6.88,6.88c3.79972,0 6.88,-3.08028 6.88,-6.88c0,-3.79972 -3.08028,-6.88 -6.88,-6.88z" fill="#e74c3c"></path><path d="M149.64,37.84c-1.89986,0 -3.44,1.54014 -3.44,3.44c0,1.89986 1.54014,3.44 3.44,3.44c1.89986,0 3.44,-1.54014 3.44,-3.44c0,-1.89986 -1.54014,-3.44 -3.44,-3.44z" fill="#e74c3c"></path><path d="M139.32,127.28c-1.89986,0 -3.44,1.54014 -3.44,3.44c0,1.89986 1.54014,3.44 3.44,3.44c1.89986,0 3.44,-1.54014 3.44,-3.44c0,-1.89986 -1.54014,-3.44 -3.44,-3.44zM25.8,101.48c-3.79972,0 -6.88,3.08028 -6.88,6.88c0,3.79972 3.08028,6.88 6.88,6.88c3.79972,0 6.88,-3.08028 6.88,-6.88c0,-3.79972 -3.08028,-6.88 -6.88,-6.88z" fill="#fbcd59"></path><path d="M43,146.2c-1.89986,0 -3.44,1.54014 -3.44,3.44c0,1.89986 1.54014,3.44 3.44,3.44c1.89986,0 3.44,-1.54014 3.44,-3.44c0,-1.89986 -1.54014,-3.44 -3.44,-3.44z" fill="#e74c3c"></path><path d="M31.82,87.72c-2.37482,0 -4.3,1.92518 -4.3,4.3c0,2.37482 1.92518,4.3 4.3,4.3c2.37482,0 4.3,-1.92518 4.3,-4.3c0,-2.37482 -1.92518,-4.3 -4.3,-4.3z" fill="#ffffff"></path><path d="M36.12,113.52c-0.94993,0 -1.72,0.77007 -1.72,1.72c0,0.94993 0.77007,1.72 1.72,1.72c0.94993,0 1.72,-0.77007 1.72,-1.72c0,-0.94993 -0.77007,-1.72 -1.72,-1.72z" fill="#e74c3c"></path><path d="M137.6,56.76c-0.94993,0 -1.72,0.77007 -1.72,1.72c0,0.94993 0.77007,1.72 1.72,1.72c0.94993,0 1.72,-0.77007 1.72,-1.72c0,-0.94993 -0.77007,-1.72 -1.72,-1.72z" fill="#ffffff"></path><g><path d="M71.724,127.796c-6.536,0 -13.76,-3.612 -13.76,-11.696v-44.032l-5.16,-6.02v-5.848c0,-8.256 3.612,-11.524 12.212,-11.524h41.796c8.772,0 12.212,3.44 12.212,11.524v6.02l-5.16,5.848v44.032c0,7.912 -7.224,11.696 -13.932,11.696z" fill="#ffffff"></path><path d="M106.984,49.88c9.288,0 11.008,3.956 11.008,10.32v0.344v1.72v3.44l-4.644,5.16l-0.516,0.688v0.86v43.688c0,7.224 -6.364,10.492 -12.728,10.492h-28.38c-6.192,0 -12.556,-3.268 -12.556,-10.492v-43.516v-0.86l-0.516,-0.688l-4.644,-5.332v-3.44v-1.72v-0.344c0,-6.364 1.892,-10.32 11.008,-10.32h41.968M106.984,47.472h-41.968c-9.976,0 -13.416,4.472 -13.416,12.728v0.344v1.72v4.472l5.16,6.02v43.516c0,8.428 7.224,12.9 14.964,12.9h28.38c7.912,0 15.136,-4.472 15.136,-12.9v-43.86l5.16,-5.848v-4.472v-1.72v-0.172c0,-8.256 -3.44,-12.728 -13.416,-12.728z" fill="#472b29"></path><path d="M64.328,97.352v-23.22c0,-1.72 1.548,-3.096 3.268,-3.096v0c1.892,0 3.268,1.376 3.268,3.096v22.704v18.404c0,1.72 -1.548,3.096 -3.268,3.096v0c-1.892,0 -3.268,-1.376 -3.268,-3.096v-3.784M76.196,97.352v-23.22c0,-1.72 1.548,-3.096 3.44,-3.096v0c1.892,0 3.44,1.376 3.44,3.096v22.704v18.404c0,1.72 -1.548,3.096 -3.44,3.096v0c-1.892,0 -3.44,-1.376 -3.44,-3.096v-3.784" fill="#e74c3c"></path><path d="M79.98,71.896c1.548,0 2.924,1.032 2.924,2.236v22.704v18.404c0,1.204 -1.376,2.236 -2.924,2.236c-1.548,0 -2.924,-1.032 -2.924,-2.236v-3.784v-13.932v-23.392c0,-1.204 1.204,-2.236 2.924,-2.236M79.98,71.036c-2.064,0 -3.784,1.376 -3.784,3.096v23.392v13.932v3.784c0,1.72 1.72,3.096 3.784,3.096c2.064,0 3.784,-1.376 3.784,-3.096v-18.404v-22.704c-0.172,-1.72 -1.892,-3.096 -3.784,-3.096zM67.94,118.336c-2.064,0 -3.956,-1.548 -3.956,-3.44v-3.956c0,-0.172 0.172,-0.516 0.516,-0.516c0.344,0 0.516,0.172 0.516,0.516v3.956c0,1.376 1.376,2.58 3.096,2.58c1.72,0 3.096,-1.204 3.096,-2.58v-40.42c0,-1.376 -1.376,-2.58 -3.096,-2.58c-1.72,0 -3.096,1.204 -3.096,2.58v15.824c0,0.172 -0.172,0.516 -0.516,0.516c-0.344,0 -0.516,-0.172 -0.516,-0.516v-15.824c0,-1.892 1.72,-3.44 3.956,-3.44c2.236,0 3.956,1.548 3.956,3.44v40.42c0,1.892 -1.892,3.44 -3.956,3.44z" fill="#472b29"></path><path d="M88.408,97.352v-23.22c0,-1.72 1.548,-3.096 3.44,-3.096v0c1.892,0 3.44,1.376 3.44,3.096v22.704v18.404c0,1.72 -1.548,3.096 -3.44,3.096v0c-1.892,0 -3.44,-1.376 -3.44,-3.096v-3.784M100.62,97.352v-23.22c0,-1.72 1.548,-3.096 3.44,-3.096v0c1.892,0 3.44,1.376 3.44,3.096v22.704v18.404c0,1.72 -1.548,3.096 -3.44,3.096v0c-1.892,0 -3.44,-1.376 -3.44,-3.096v-3.784" fill="#e74c3c"></path><path d="M88.408,97.352v-23.22c0,-1.72 1.548,-3.096 3.44,-3.096v0c1.892,0 3.44,1.376 3.44,3.096v22.704v18.404c0,1.72 -1.548,3.096 -3.44,3.096v0c-1.892,0 -3.44,-1.376 -3.44,-3.096v-3.784M100.62,97.352v-23.22c0,-1.72 1.72,-3.096 3.784,-3.096v0c2.064,0 3.784,1.376 3.784,3.096v22.704v18.404c0,1.72 -1.72,3.096 -3.784,3.096v0c-2.064,0 -3.784,-1.376 -3.784,-3.096v-3.784" fill="#e74c3c"></path><path d="M92.02,71.896c1.548,0 2.752,1.032 2.752,2.236v22.704v18.404c0,1.204 -1.204,2.236 -2.752,2.236c-1.548,0 -2.752,-1.032 -2.752,-2.236v-3.784v-13.932v-23.392c0,-1.204 1.376,-2.236 2.752,-2.236M92.02,71.036c-2.064,0 -3.612,1.376 -3.612,3.096v23.392v13.932v3.784c0,1.72 1.72,3.096 3.612,3.096c1.892,0 3.612,-1.376 3.612,-3.096v-18.404v-22.704c0.172,-1.72 -1.548,-3.096 -3.612,-3.096zM104.232,71.38c1.72,0 3.096,1.032 3.096,2.236v23.22v18.748c0,1.204 -1.376,2.236 -3.096,2.236c-1.72,0 -3.096,-1.032 -3.096,-2.236v-3.956v-14.276v-23.736c0,-1.204 1.548,-2.236 3.096,-2.236M104.232,70.52c-2.236,0 -3.956,1.376 -3.956,3.096v23.736v14.276v3.956c0,1.72 1.72,3.096 3.956,3.096c2.236,0 3.956,-1.376 3.956,-3.096v-18.748v-23.22c0.172,-1.72 -1.72,-3.096 -3.956,-3.096zM56.072,78.776v12.728v0c-2.064,0 -3.784,-1.548 -3.784,-3.268v-6.364c0,-1.72 1.72,-3.096 3.784,-3.096v0M58.48,76.368h-2.408c-3.44,0 -6.192,2.58 -6.192,5.676v6.364c0,3.096 2.752,5.676 6.192,5.676h2.408v-17.716zM115.928,78.776c2.064,0 3.784,1.548 3.784,3.268v6.364c0,1.72 -1.72,3.268 -3.784,3.268v0v-12.9v0M115.928,76.368h-2.408v17.544h2.408c3.44,0 6.192,-2.58 6.192,-5.676v-6.364c0,-2.924 -2.752,-5.504 -6.192,-5.504zM93.396,41.968c2.064,0 3.956,2.236 3.956,4.816v0.516h-22.704v-0.516c0,-2.58 1.72,-4.816 3.956,-4.816h14.792M93.396,39.56h-14.964c-3.44,0 -6.364,3.268 -6.364,7.224v2.924h27.52v-2.924c0.172,-3.956 -2.752,-7.224 -6.192,-7.224zM117.304,67.08h-63.124c-0.172,0 -0.516,-0.172 -0.516,-0.516c0,-0.344 0.172,-0.516 0.516,-0.516h63.124c0.172,0 0.516,0.172 0.516,0.516c0,0.344 -0.172,0.516 -0.516,0.516zM105.78,56.416h-53.32c-0.172,0 -0.516,-0.172 -0.516,-0.516c0,-0.344 0.172,-0.516 0.516,-0.516h53.32c0.172,0 0.516,0.172 0.516,0.516c0,0.344 -0.344,0.516 -0.516,0.516zM110.424,123.152h-49.192c-0.172,0 -0.516,-0.172 -0.516,-0.516c0,-0.344 0.172,-0.516 0.516,-0.516h49.02c0.172,0 0.516,0.172 0.516,0.516c0,0.344 -0.172,0.516 -0.344,0.516zM113.864,56.588h-5.332c-0.172,0 -0.516,-0.172 -0.516,-0.516c0,-0.344 0.172,-0.516 0.516,-0.516h5.332c0.172,0 0.516,0.172 0.516,0.516c0,0.344 -0.344,0.516 -0.516,0.516zM64.5,101.136c-0.172,0 -0.516,-0.172 -0.516,-0.516v-6.364c0,-0.172 0.172,-0.516 0.516,-0.516c0.344,0 0.516,0.172 0.516,0.516v6.364c-0.172,0.344 -0.344,0.516 -0.516,0.516z" fill="#472b29"></path><g fill="#472b29"><path d="M119.54,61.92h-67.08c-0.516,0 -0.86,-0.344 -0.86,-0.86c0,-0.516 0.344,-0.86 0.86,-0.86h67.08c0.516,0 0.86,0.344 0.86,0.86c0,0.516 -0.344,0.86 -0.86,0.86z"></path></g></g></g></g></svg>